<svg width="60" height="60" viewBox="0 0 60 60" fill="none" xmlns="http://www.w3.org/2000/svg">
<path d="M32.5 7.5H20.5C17.6997 7.5 16.2996 7.5 15.2301 8.04497C14.2892 8.52432 13.5243 9.28923 13.045 10.2301C12.5 11.2996 12.5 12.6997 12.5 15.5V44.5C12.5 47.3002 12.5 48.7005 13.045 49.77C13.5243 50.7108 14.2892 51.4757 15.2301 51.955C16.2996 52.5 17.6997 52.5 20.5 52.5H39.5C42.3003 52.5 43.7005 52.5 44.77 51.955C45.7108 51.4757 46.4757 50.7108 46.955 49.77C47.5 48.7005 47.5 47.3002 47.5 44.5V22.5M32.5 7.5L47.5 22.5M32.5 7.5V18.5C32.5 19.9001 32.5 20.6002 32.7725 21.135C33.0123 21.6054 33.3945 21.9878 33.865 22.2275C34.3997 22.5 35.0998 22.5 36.5 22.5H47.5M20.3174 52.5C21.4275 48.187 25.3428 45 30.0023 45C34.662 45 38.5772 48.187 39.6872 52.5M32.5 35C32.5 36.3807 31.3807 37.5 30 37.5C28.6193 37.5 27.5 36.3807 27.5 35C27.5 33.6193 28.6193 32.5 30 32.5C31.3807 32.5 32.5 33.6193 32.5 35Z" stroke="#393A3B" stroke-width="5" stroke-linecap="round" stroke-linejoin="round"/>
</svg>
